M48
METRIC,0000.00
T01C0.8
T02C0.9
T03C3.0
%
T01
X+001609Y+003668
X+001609Y+003922
X+001609Y+004176
X+002203Y+003875
X+002379Y+003548
X+003518Y+004085
X+005099Y+003792
X+005099Y+003538
X+005059Y+002350
X+005059Y+002096
X+005059Y+001842
X+005059Y+001588
X+004824Y+000557
X+004824Y+000303
X+004463Y+000479
X+004159Y+000263
X+003909Y+001487
X+003699Y+002255
X+003499Y+002303
X+003249Y+002033
X+003044Y+002318
X+000965Y+003192
X+000898Y+003373
X+000898Y+003723
X+000374Y+003692
X+000374Y+003946
X+000374Y+003438
X+000694Y+003070
X+001183Y+000687
X+001639Y+000503
X+001639Y+000249
T02
X+005152Y+002832
X+004898Y+002832
X+004644Y+002832
X+004390Y+002832
X+004136Y+002832
X+003882Y+002832
X+003628Y+002832
X+003374Y+002832
X+003120Y+002832
X+002866Y+002832
X+002612Y+002832
X+002358Y+002832
X+002104Y+002832
X+001850Y+002832
X+001596Y+002832
X+001342Y+002832
X+001088Y+002832
X+000834Y+002832
X+000580Y+002832
X+000326Y+002832
X+000464Y+002378
X+000464Y+002123
X+000464Y+001870
X+000464Y+001616
X+000864Y+001743
X+000864Y+001997
X+000864Y+002250
X+000864Y+001488
X+000834Y+001054
X+000580Y+001054
X+000326Y+001054
X+001088Y+001054
X+001342Y+001054
X+001596Y+001054
X+001850Y+001054
X+002104Y+001054
X+002358Y+001054
X+002612Y+001054
X+002866Y+001054
X+003120Y+001054
X+003374Y+001054
X+003628Y+001054
X+003882Y+001054
X+004136Y+001054
X+004390Y+001054
X+004644Y+001054
X+004898Y+001054
X+005152Y+001054
T03
X+000274Y+000270
X+000282Y+004229
X+005231Y+004239
X+005237Y+000263
T00
M30
